<svg width="26" height="38" viewBox="0 0 26 38" fill="none" xmlns="http://www.w3.org/2000/svg">
<path d="M19.7793 24.7354C19.875 24.5247 20.0294 24.3478 20.2191 24.2188C23.7045 21.8468 26 17.807 26 13.2216C26 5.91944 20.1798 0 13 0C5.82022 0 0 5.91944 0 13.2216C0 17.807 2.2955 21.8468 5.78093 24.2188C5.97059 24.3478 6.12505 24.5247 6.22073 24.7354L11.9271 37.302C12.3497 38.2327 13.6503 38.2327 14.0729 37.302L19.7793 24.7354Z" fill="#979797"/>
<path d="M22.4545 13.2216C22.4545 18.5322 18.2216 22.8373 13 22.8373C7.7784 22.8373 3.54545 18.5322 3.54545 13.2216C3.54545 7.91099 7.7784 3.60589 13 3.60589C18.2216 3.60589 22.4545 7.91099 22.4545 13.2216Z" fill="white"/>
</svg>
