<svg width="326" height="420" viewBox="0 0 326 420" fill="none" xmlns="http://www.w3.org/2000/svg">
<path d="M176.275 295.642L185.145 281.949C186.954 279.156 187.066 275.591 185.436 272.691L170.462 246.036C168.395 242.357 169.176 237.734 172.336 234.938L195.214 214.696C197.484 212.688 198.367 209.536 197.47 206.64L196.263 202.744C195.381 199.897 197.425 196.984 200.403 196.846C201.871 196.778 203.216 196.006 204.015 194.772L206.849 190.397C207.901 188.772 209.452 187.532 211.268 186.862L217.556 184.542C219.803 183.714 220.698 181.013 219.391 179.006C218.073 176.981 218.998 174.256 221.277 173.452L232.259 169.579C236.778 167.986 238.141 162.257 234.825 158.799C232.336 156.205 232.385 152.095 234.935 149.561L239.992 144.535C243.496 141.052 249.158 141.063 252.648 144.559L258.655 150.576C262.411 154.338 268.597 154.022 271.949 149.896L286.295 132.237C287.505 130.748 289.161 129.686 291.019 129.209L296.713 127.746C301.168 126.601 304.032 122.269 303.34 117.721L302.151 109.905C301.529 105.818 303.785 101.837 307.61 100.269L320.108 95.1447C323.592 93.7166 325.811 90.2629 325.662 86.5009L322.72 12.199C322.552 7.95674 319.429 4.4149 315.241 3.71667L293.681 0.121983C292.303 -0.107874 290.889 -0.0119798 289.554 0.401995L218.673 22.3827C214.636 23.6347 212.023 27.5381 212.404 31.7477L212.533 33.1733C212.958 37.8635 209.679 42.082 205.029 42.8273L106.879 58.5593C102.335 59.2877 99.0822 63.34 99.3537 67.9338L105.093 165.052C105.2 166.864 105.855 168.601 106.971 170.032L135.762 206.958C136.965 208.502 137.63 210.398 137.655 212.355L137.74 219.26C137.791 223.366 134.606 226.786 130.508 227.027C125.33 227.332 121.934 232.574 123.774 237.424L125.548 242.105C126.088 243.527 126.201 245.075 125.874 246.56L125.525 248.145C124.986 250.594 122.899 252.395 120.397 252.569C117.408 252.778 115.1 255.283 115.137 258.279L115.166 260.589C115.211 264.228 112.823 267.45 109.328 268.466L103.959 270.026C100.2 271.119 96.3035 268.788 95.4884 264.959C94.7514 261.496 91.4612 259.195 87.9562 259.689L57.7534 263.952C56.9634 264.064 56.1621 264.069 55.3707 263.968L35.7609 261.473C32.3851 261.044 29.5442 258.739 28.4282 255.524L28.3801 255.386C27.3243 252.344 24.7174 250.103 21.5518 249.515L15.2783 248.351C11.7109 247.689 8.09644 249.243 6.12396 252.289L1.77059 259.01C0.632698 260.767 0.145843 262.866 0.39453 264.945L1.0779 270.656C1.46725 273.91 4.44597 276.214 7.69339 275.774C9.48289 275.531 11.2844 276.126 12.5777 277.386L40.0125 304.123C41.2804 305.359 42.1537 306.942 42.5223 308.674L46.6694 328.156C47.7692 333.322 44.1827 338.314 38.9352 338.92L33.1918 339.584C29.8703 339.968 27.0389 342.169 25.8484 345.294L25.7632 345.517C24.1356 349.789 25.985 354.601 30.0544 356.683L60.8724 372.45C63.2365 373.659 66.1095 373.218 68.0015 371.355C69.871 369.514 70.3693 366.691 69.2433 364.321L68.2905 362.316C66.6409 358.844 69.0035 354.801 72.8379 354.534C73.86 354.462 74.8414 354.105 75.6697 353.501L82.0386 348.863C83.9339 347.483 86.4837 347.413 88.4516 348.688C91.372 350.579 91.9121 354.632 89.5889 357.223L73.7827 374.846C71.1778 377.75 70.7519 382.006 72.7298 385.369L87.8533 411.083C88.5595 412.283 89.5359 413.303 90.7051 414.06L97.653 418.56C99.2821 419.616 101.21 420.113 103.146 419.978L109.094 419.564C112.407 419.333 115.321 417.288 116.665 414.25L122.791 400.397C123.75 398.228 123.81 395.766 122.957 393.552L109.176 357.795C108.011 354.772 108.569 351.355 110.635 348.859L146.877 305.097C148.32 303.355 150.368 302.223 152.61 301.929L169.923 299.655C172.526 299.313 174.848 297.846 176.275 295.642Z" fill="#7175DA" fill-opacity="0.5"/>
</svg>
