<svg width="416" height="420" viewBox="0 0 416 420" fill="none" xmlns="http://www.w3.org/2000/svg">
<path d="M190.034 16.1372L176.63 5.24978C169.857 -0.25243 160.587 -1.53921 152.57 1.90984L85.8179 30.6272C82.8895 31.887 79.7349 32.5367 76.5469 32.5367H23.9919C5.28676 32.5367 -5.8912 53.3536 4.44593 68.9376L42.9224 126.944C50.1682 137.868 47.048 152.608 35.9968 159.661L30.1361 163.401C22.0773 168.545 17.9487 178.064 19.7013 187.46L29.7769 241.476C30.4751 245.219 30.2509 249.075 29.1238 252.712L11.5409 309.445C9.53168 315.927 10.4313 322.962 14.0073 328.731L23.0774 343.364C27.8228 351.02 36.5358 355.281 45.4947 354.329L104.003 348.105C107.59 347.723 111.217 348.174 114.602 349.422L193.759 378.611C202.152 381.707 207.727 389.703 207.727 398.646C207.727 410.439 217.291 420 229.089 420H242.784C254.78 420 264.842 410.951 266.106 399.026L267.973 381.415C268.908 372.601 264.79 364.013 257.33 359.221L238.948 347.412C229.099 341.085 225.426 328.467 230.342 317.845L262.814 247.679C266.849 238.96 275.796 233.585 285.391 234.114L308.238 235.374C315.66 235.783 322.448 239.685 326.535 245.891L359.3 295.642C364.441 303.447 373.729 307.456 382.937 305.842L396.096 303.537C407.316 301.571 415.5 291.831 415.5 280.444V200.792C415.5 194.778 413.188 188.994 409.042 184.636L320.037 91.0744L270.923 30.1241C266.471 24.5992 259.756 21.3867 252.659 21.3867H204.824C199.437 21.3867 194.214 19.533 190.034 16.1372Z" fill="#83D975" fill-opacity="0.8"/>
</svg>
