<svg width="300" height="218" viewBox="0 0 300 218" fill="none" xmlns="http://www.w3.org/2000/svg">
<path d="M76.9626 109.108H69.8625C67.9878 109.108 66.1459 109.599 64.5203 110.533L28.49 131.232C24.1326 133.735 18.6213 132.877 15.2312 129.167L2.80794 115.573C-0.63056 111.811 -0.945739 106.148 2.054 102.027L30.986 62.2814C32.7035 59.922 35.3083 58.3644 38.1995 57.9679L87.3276 51.231C90.4693 50.8002 93.2593 49.001 94.948 46.3169L107.911 25.7121C111.809 19.5163 121.141 20.5687 123.561 27.4772C124.789 30.9822 128.098 33.3289 131.811 33.3289H140.169C146.092 33.3289 150.894 28.5274 150.894 22.6044V18.0976C150.894 13.4803 153.849 9.3814 158.23 7.92251L177.604 1.47026C182.19 -0.0569571 187.231 1.67215 189.913 5.6927L196.552 15.6422C198.215 18.1337 200.843 19.8164 203.802 20.2831L281.925 32.607C284.845 33.0677 287.445 34.7134 289.112 37.1552L298.133 50.3746C301.295 55.0079 300.352 61.295 295.971 64.7972L288.14 71.0562C287.057 71.9215 285.817 72.5688 284.488 72.9622L259.366 80.399C256.857 81.1418 254.706 82.7763 253.318 84.9947L241.622 103.692C239.534 107.029 239.442 111.241 241.383 114.666L266.012 158.138C269.428 164.168 266.314 171.807 259.655 173.728L225.85 183.485C222.776 184.373 219.466 183.841 216.824 182.035L209.506 177.032C205.117 174.032 199.161 177.175 199.161 182.492C199.161 188.245 192.323 191.255 188.081 187.369L187.385 186.732C186.089 185.545 184.395 184.887 182.638 184.887H128.233C124.467 184.887 120.977 186.862 119.039 190.09L107.853 208.715C104.502 214.296 96.9631 215.573 91.9604 211.408C89.284 209.179 85.6849 208.406 82.3292 209.337L55.8443 216.687C50.4613 218.181 44.8332 215.292 42.9085 210.048L36.1535 191.642C34.6538 187.556 35.7729 182.968 38.9858 180.031L84.1982 138.705C86.421 136.673 87.6871 133.8 87.6871 130.789V119.832C87.6871 113.909 82.8856 109.108 76.9626 109.108Z" fill="#FF7466" fill-opacity="0.5"/>
</svg>
