<svg width="298" height="300" viewBox="0 0 298 300" fill="none" xmlns="http://www.w3.org/2000/svg">
<path d="M136.166 11.5266L126.593 3.74984C121.754 -0.180307 115.133 -1.09944 109.406 1.36417L61.7265 21.8765C59.6348 22.7764 57.3815 23.2405 55.1044 23.2405H17.5651C4.20427 23.2405 -3.77998 38.1097 3.60368 49.2412L31.0869 90.6742C36.2625 98.4768 34.0337 109.006 26.14 114.043L21.9538 116.715C16.1975 120.389 13.2485 127.188 14.5004 133.9L21.6973 172.483C22.1959 175.156 22.0358 177.911 21.2307 180.508L8.67148 221.032C7.23635 225.662 7.87896 230.687 10.4332 234.808L16.9119 245.26C20.3015 250.729 26.525 253.772 32.9242 253.092L74.7162 248.646C77.2784 248.374 79.8689 248.696 82.2863 249.587L138.827 270.437C144.823 272.648 148.805 278.359 148.805 284.747C148.805 293.171 155.636 300 164.063 300H173.845C182.413 300 189.601 293.537 190.504 285.019L191.837 272.439C192.505 266.143 189.563 260.009 184.235 256.586L171.105 248.152C164.07 243.632 161.446 234.619 164.958 227.032L188.152 176.913C191.034 170.686 197.425 166.846 204.279 167.224L220.598 168.124C225.899 168.417 230.748 171.204 233.667 175.636L257.071 211.173C260.743 216.748 267.377 219.611 273.955 218.459L283.354 216.812C291.368 215.408 297.214 208.451 297.214 200.317V143.423C297.214 139.127 295.562 134.996 292.601 131.883L229.026 65.0531L193.944 21.5172C190.764 17.5709 185.968 15.2762 180.899 15.2762H146.731C142.883 15.2762 139.153 13.9522 136.166 11.5266Z" fill="#83D975" fill-opacity="0.8"/>
</svg>
