<svg width="197" height="202" viewBox="0 0 197 202" fill="none" xmlns="http://www.w3.org/2000/svg">
<path d="M146.111 199.767L141.12 196.714L76.3738 154.627C75.6334 154.146 74.7692 153.89 73.8861 153.89H68.3687C67.106 153.89 65.8998 153.367 65.0368 152.445L59.8314 146.886C59.296 146.315 58.6225 145.89 57.8756 145.654L51.5719 143.661C50.3613 143.278 49.3648 142.409 48.8218 141.261L46.1278 135.567C45.5687 134.385 45.5431 133.02 46.0576 131.819L48.953 125.055C49.4154 123.975 49.4434 122.758 49.0313 121.657L46.9646 116.14C46.8048 115.713 46.5819 115.313 46.3035 114.952L39.4329 106.05C38.7456 105.16 37.7536 104.554 36.6473 104.35L4.73677 98.4653C2.57159 98.066 1 96.1781 1 93.9764V88.5743C1 87.829 1.18246 87.0951 1.53144 86.4367L13.2515 64.3231C13.6005 63.6646 13.7829 62.9307 13.7829 62.1855V47.881C13.7829 46.4451 14.4585 45.0929 15.6067 44.2308L31.3608 32.4014C32.6545 31.43 34.3658 31.2159 35.859 31.8388L42.073 34.431C43.9529 35.2152 46.1249 34.659 47.3964 33.0677L49.5309 30.3965C50.534 29.1411 50.8032 27.4508 50.2395 25.9459L49.0451 22.7572C48.5359 21.3976 47.2365 20.4967 45.7846 20.4967C43.2409 20.4967 41.5558 17.8578 42.626 15.5502L45.4972 9.35868C46.245 7.74619 47.8608 6.71441 49.6383 6.71441H50.4491C51.8245 6.71441 53.1267 6.09418 53.9934 5.02617L55.8907 2.68831C57.5728 0.615633 60.6667 0.422312 62.5937 2.26948L127.041 64.0464C127.874 64.8452 128.374 65.93 128.44 67.0824L132.495 138.361C132.641 140.933 134.885 142.874 137.452 142.649L155.822 141.036C158.491 140.801 160.786 142.904 160.786 145.583V146.943C160.786 149.149 158.999 150.937 156.793 150.937C155.878 150.937 154.99 151.251 154.279 151.827L147.404 157.4C146.261 158.326 146.386 160.105 147.647 160.862L147.961 161.051C148.982 161.664 149.155 163.073 148.314 163.916C147.599 164.632 147.599 165.791 148.314 166.506L150.136 168.331C151.622 169.818 154.156 169.189 154.773 167.18C155.133 166.01 156.214 165.211 157.438 165.211H172.896C173.66 165.211 174.413 165.019 175.084 164.653L181.937 160.91C183.687 159.954 185.854 160.245 187.291 161.628L194.601 168.665C196.325 170.325 196.475 173.034 194.944 174.874L194.113 175.872C193.245 176.914 191.96 177.517 190.604 177.517H188.86C186.66 177.517 184.877 179.3 184.877 181.499C184.877 182.984 184.051 184.346 182.734 185.032L173.577 189.799C172.926 190.138 172.203 190.315 171.469 190.315H159.876C158.302 190.315 156.838 191.126 156.004 192.462L152.366 198.291C151.039 200.416 148.248 201.074 146.111 199.767Z" stroke="#D9D9D9" stroke-width="2"/>
</svg>
