<svg width="201" height="224" viewBox="0 0 201 224" fill="none" xmlns="http://www.w3.org/2000/svg">
<path d="M105.649 134.446L116.011 151.045C117.638 153.651 121.209 154.187 123.529 152.174L160.258 120.305C162.239 118.586 162.555 115.629 160.983 113.53L160.22 112.512C158.816 110.638 158.901 108.041 160.423 106.262L182.962 79.936C183.95 78.7821 184.09 77.1258 183.309 75.8229C183.188 75.6215 183.088 75.4085 183.009 75.1871L178.709 63.0543C178.072 61.2569 178.513 59.2536 179.846 57.8896L198.576 38.7203C199.489 37.7861 200 36.5319 200 35.2259V32.3263C200 29.5649 197.761 27.3263 195 27.3263H192.872C192.014 27.3263 191.171 27.5469 190.423 27.9668L174.523 36.8968C172.568 37.9947 170.122 37.6571 168.537 36.0707L145.965 13.4722C144.22 11.7246 141.459 11.5135 139.468 12.9753L137.527 14.4005C136.244 15.3425 135.486 16.8391 135.486 18.4309V32.7096C135.486 34.0347 134.96 35.3055 134.024 36.243L128.515 41.7587C127.577 42.6977 126.304 43.2253 124.977 43.2253H118.169C117.165 43.2253 116.185 42.9232 115.355 42.3584L109.847 38.6086C107.058 36.7096 106.912 32.6496 109.558 30.5552L121.881 20.7996C123.95 19.1617 124.39 16.1979 122.886 14.0296L115.824 3.84776C114.322 1.68313 111.399 1.0548 109.14 2.41135L106.899 3.75771C106.122 4.22481 105.232 4.47158 104.324 4.47158H86.316C85.37 4.47158 84.4434 4.73996 83.6438 5.24555L77.5881 9.07472C76.3317 9.86915 74.6924 9.68633 73.6419 8.63461C72.6474 7.63891 71.1163 7.41606 69.8792 8.08695L63.1751 11.7226C61.3064 12.736 60.2828 14.8201 60.6232 16.9185L69.3173 70.5191C69.4271 71.1959 69.675 71.843 70.0455 72.42L89.8475 103.259C91.0204 105.086 90.8806 107.461 89.5016 109.137L86.2807 113.053C85.3813 114.146 84.9876 115.57 85.1974 116.97L85.8462 121.3C86.1535 123.352 85.1623 125.38 83.3548 126.398L81.3847 127.507C79.7108 128.45 77.5932 127.943 76.5284 126.343C75.8478 125.321 74.7012 124.707 73.4732 124.707H70.4589C69.8312 124.707 69.2257 124.94 68.7594 125.36C67.126 126.832 64.5212 125.673 64.5212 123.474V120.163C64.5212 118.557 63.2189 117.255 61.6125 117.255C60.6395 117.255 59.7308 117.741 59.1915 118.551L57.0469 121.772C55.8749 123.532 53.7224 124.364 51.6712 123.851L50.697 123.607C48.5857 123.079 46.375 123.977 45.2303 125.828L34.9967 142.379C34.5081 143.169 34.2494 144.079 34.2494 145.008V151.455C34.2494 152.78 34.7754 154.051 35.7118 154.988L41.5063 160.79C43.0853 162.37 45.5463 162.698 47.499 161.612C48.2423 161.199 49.0873 160.977 49.9379 160.977H53.4476C54.5159 160.977 55.5561 161.319 56.4158 161.953L61.9294 166.021C63.4987 167.178 65.6104 167.278 67.2821 166.274L69.4417 164.977C70.7822 164.172 72.525 164.722 73.1595 166.151C73.6281 167.207 74.7368 167.828 75.8817 167.675L86.4494 166.264C87.9587 166.063 89.2939 165.184 90.0766 163.878L94.0818 157.195C94.5472 156.419 94.793 155.53 94.793 154.625V146.848C94.793 146.013 94.5835 145.19 94.1837 144.456L92.9122 142.122C92.244 140.896 92.3525 139.393 93.1899 138.275L93.9812 137.218C94.4624 136.576 94.4624 135.693 93.9812 135.051C93.0885 133.859 93.9389 132.16 95.4278 132.16H101.527C103.203 132.16 104.761 133.024 105.649 134.446Z" stroke="#D9D9D9" stroke-width="2"/>
<path d="M18.4568 182.341H24.307C25.545 182.341 26.688 183.005 27.3017 184.08C27.9154 185.155 29.0585 185.819 30.2965 185.819H33.3987C33.9618 185.819 34.5208 185.724 35.0522 185.538L41.9839 183.109C43.3731 182.622 44.9063 182.772 46.1747 183.519L50.1483 185.859C51.6742 186.758 52.611 188.397 52.611 190.167V191.869C52.611 193.093 52.1623 194.274 51.35 195.189L50.8859 195.711C49.5297 197.239 49.239 199.438 50.1517 201.265L50.3657 201.694C51.6039 204.173 50.5894 207.186 48.1038 208.412L20.4072 222.07C19.7193 222.409 18.9627 222.585 18.1958 222.585H10.2512C9.39171 222.585 8.54669 222.364 7.79775 221.942L3.54651 219.548C1.97335 218.662 1 216.997 1 215.191V212.709C1 211.11 1.76449 209.608 3.05689 208.666L4.40197 207.687C5.69437 206.746 6.45885 205.244 6.45885 203.645V200.465C6.45885 199.049 7.0596 197.699 8.11186 196.751L9.76844 195.258C10.8207 194.31 11.4214 192.96 11.4214 191.543V189.379C11.4214 188.054 11.9474 186.783 12.8838 185.845L14.9192 183.808C15.8571 182.869 17.1297 182.341 18.4568 182.341Z" stroke="#D9D9D9" stroke-width="2"/>
</svg>
