<svg width="69" height="70" viewBox="0 0 69 70" fill="none" xmlns="http://www.w3.org/2000/svg">
<path d="M31.5129 2.68397L29.2843 0.873154C28.1581 -0.0419847 26.6168 -0.256005 25.2839 0.317649L14.1854 5.09397C13.6985 5.30351 13.174 5.41158 12.6439 5.41158H3.90589C0.79587 5.41158 -1.06263 8.87389 0.65607 11.4659L7.05337 21.1136C8.25809 22.9304 7.73931 25.382 5.90189 26.5551L4.92746 27.1773C3.58755 28.0327 2.9011 29.6159 3.1925 31.1787L4.86773 40.1628C4.98381 40.7853 4.94653 41.4267 4.75914 42.0316L1.83571 51.4675C1.50165 52.5457 1.65123 53.7158 2.24579 54.6753L3.75383 57.1091C4.54283 58.3824 5.9915 59.0912 7.48104 58.9327L17.209 57.8975C17.8054 57.8341 18.4084 57.909 18.9711 58.1166L32.1322 62.9715C33.5277 63.4863 34.4547 64.8162 34.4547 66.3036C34.4547 68.2652 36.0448 69.8553 38.0063 69.8553H40.2833C42.2778 69.8553 43.9508 68.3503 44.161 66.3669L44.4714 63.4378C44.6268 61.9717 43.9421 60.5434 42.7019 59.7464L39.6455 57.7823C38.008 56.73 37.3973 54.6313 38.2146 52.8647L43.6137 41.1945C44.2845 39.7444 45.7721 38.8503 47.3675 38.9383L51.1661 39.1479C52.4 39.216 53.5286 39.8649 54.2082 40.8971L59.6559 49.1717C60.5107 50.47 62.0549 51.1367 63.5859 50.8683L65.7738 50.4849C67.6392 50.158 69 48.5379 69 46.6441V33.3962C69 32.3959 68.6156 31.4339 67.9263 30.7091L53.1278 15.1477L44.9619 5.01031C44.2217 4.09139 43.1052 3.55708 41.9252 3.55708H33.9719C33.0763 3.55708 32.2079 3.24877 31.5129 2.68397Z" fill="#83D975" fill-opacity="0.5"/>
</svg>
