<svg width="189" height="236" viewBox="0 0 189 236" fill="none" xmlns="http://www.w3.org/2000/svg">
<path d="M79.0149 89.328L76.1637 91.4185C73.9837 93.0169 73.6721 96.1532 75.4949 98.1493L82.9819 106.348C83.304 106.701 83.5684 107.102 83.7656 107.537L98.6767 140.439C99.0141 141.183 99.1445 142.005 99.0542 142.817L98.0714 151.661C97.8015 154.089 99.7024 156.213 102.146 156.213C103.937 156.213 105.521 157.376 106.057 159.086L124.971 219.395C125.135 219.916 125.39 220.404 125.727 220.834L135.139 232.88C136.975 235.23 140.539 235.204 142.342 232.828L149.6 223.262C150.307 222.33 151.347 221.706 152.503 221.521L175.779 217.798C177.071 217.591 178.212 216.837 178.909 215.729L186.474 203.695C187.894 201.437 186.271 198.498 183.603 198.498C181.856 198.498 180.395 197.172 180.227 195.434L179.079 183.572C178.97 182.45 179.592 181.384 180.623 180.926C182.207 180.222 182.683 178.2 181.578 176.863L174.516 168.316C173.843 167.501 173.475 166.477 173.475 165.421V152.999C173.475 152.262 173.655 151.535 173.998 150.882L177.48 144.267C178.338 142.638 178.128 140.654 176.95 139.24L174.358 136.13C173.782 135.439 173.425 134.593 173.33 133.698L167.702 80.5014C167.579 79.3388 167.013 78.2683 166.121 77.5123L145.218 59.7931C143.654 58.4673 141.396 58.3527 139.706 59.5132L98.7281 87.6499C97.9708 88.1699 97.0738 88.4482 96.1552 88.4482H81.7026C80.7359 88.4482 79.7944 88.7564 79.0149 89.328Z" stroke="#D9D9D9" stroke-width="2"/>
<path d="M47.2812 49.9345L44.1204 55.3069C43.3037 56.6951 41.8133 57.5474 40.2027 57.5474H27.2965C25.2468 57.5474 23.4506 56.1756 22.9112 54.1982L22.6244 53.1466C22.3488 52.1361 22.4306 51.0613 22.8561 50.1041L25.1658 44.9082C25.9794 43.0778 25.499 40.9306 23.9829 39.6215L16.8004 33.4195C15.4627 32.2644 13.5766 31.9894 11.9647 32.7146L8.34952 34.3412C5.89494 35.4456 3.02367 34.187 2.17238 31.6336L1.23336 28.817C0.778172 27.4517 0.99648 25.9515 1.82191 24.7725L3.15214 22.8725C3.85772 21.8647 5.07601 21.3471 6.29122 21.539C9.20917 21.9996 11.1548 18.6155 9.28864 16.3255L5.49783 11.6739C3.93251 9.75319 4.19392 6.93262 6.08558 5.33226L7.44927 4.17856C8.70135 3.11928 10.5785 3.29134 11.6171 4.56058C12.9948 6.24411 15.661 5.89673 16.5613 3.91641L16.6159 3.79631C17.052 2.83695 17.9571 2.17463 19.0034 2.04909L27.5687 1.02143C29.3265 0.810529 30.8736 2.18308 30.8736 3.95351C30.8736 6.01531 32.9329 7.44248 34.8634 6.71864L37.533 5.71771C38.7608 5.25739 40.1442 5.55704 41.0715 6.48412C42.102 7.51452 43.6812 7.75887 44.975 7.08813L55.0607 1.85943C56.5298 1.09778 58.2968 1.19474 59.6738 2.11257L61.9241 3.61251C63.1888 4.4555 63.9484 5.87483 63.9484 7.39474V10.3431C63.9484 12.0341 63.0098 13.5852 61.5118 14.3698L55.2816 17.6327C53.6384 18.4933 52.6829 20.266 52.8675 22.1117L53.9526 32.9603C54.1005 34.4392 53.5161 35.8969 52.3876 36.8641L48.7311 39.9977C47.4236 41.1182 46.8615 42.8812 47.2792 44.5517L47.7731 46.527C48.0623 47.6834 47.8856 48.9071 47.2812 49.9345Z" stroke="#D9D9D9" stroke-width="2"/>
</svg>
