<svg width="140" height="186" viewBox="0 0 140 186" fill="none" xmlns="http://www.w3.org/2000/svg">
<path d="M121.1 66.7525L137.307 79.3613C139.434 81.0158 139.58 84.1789 137.614 86.022L134.998 88.4757C134.185 89.238 133.112 89.6623 131.998 89.6623H131.518C129.695 89.6623 128.063 90.7891 127.417 92.4929L125.091 98.6273C124.201 100.974 125.934 103.486 128.444 103.486C129.911 103.486 131.23 104.379 131.775 105.741L132.916 108.596C133.43 109.88 133.308 111.331 132.587 112.511L130.557 115.833C129.383 117.754 126.946 118.475 124.916 117.501L118.977 114.649C117.502 113.941 115.755 114.112 114.446 115.094L99.2679 126.481C98.1638 127.309 97.514 128.609 97.514 129.989V143.829C97.514 144.569 97.3268 145.297 96.9697 145.945L84.9985 167.676C84.7679 168.095 84.647 168.565 84.647 169.043V171.016C84.647 173.08 82.0307 173.969 80.7726 172.333C80.2343 171.633 79.3243 171.331 78.4742 171.57L67.8297 174.565C65.9384 175.097 64.6317 176.822 64.6317 178.787V180.136C64.6317 182.558 62.6681 184.522 60.2459 184.522H57.7487C56.1202 184.522 54.6258 183.619 53.8674 182.178L51.5681 177.808C50.8098 176.367 49.3154 175.465 47.6869 175.465H47.417C45.2562 175.465 43.4173 173.891 43.0838 171.756L41.5674 162.048C41.3995 160.973 41.9966 159.924 43.0069 159.52C44.4955 158.925 44.9546 157.04 43.9068 155.827L38.0576 149.052C37.3698 148.255 36.9914 147.238 36.9914 146.186V135.888C36.9914 135.268 37.123 134.654 37.3775 134.089L40.2642 127.672C40.8949 126.27 40.7456 124.641 39.8708 123.377L37.6511 120.17C37.2187 119.545 36.9561 118.819 36.8888 118.062L35.0852 97.7658L31.4994 71.3141C31.3535 70.2377 30.8133 69.2537 29.9835 68.5527L10.8447 52.3869C10.1816 51.8268 9.69968 51.0827 9.4598 50.2486L1.17248 21.4328C0.450676 18.9231 2.0685 16.3425 4.642 15.8987L9.99979 14.9747C12.1033 14.6119 13.6402 12.7874 13.6402 10.6528V7.6111C13.6402 5.66892 14.9175 3.95804 16.7797 3.40616L24.5181 1.11268C25.6935 0.764333 26.9569 1.24289 27.6065 2.28253C28.3386 3.45428 29.8313 3.89352 31.0814 3.30508L33.1159 2.34744C35.2709 1.33304 37.8416 2.22409 38.9066 4.35459L39.1914 4.92434C40.3232 7.1884 39.3088 9.9378 36.9777 10.9243L33.0048 12.6056C31.2203 13.3607 30.9702 15.7875 32.5633 16.8906C33.8571 17.7865 33.9876 19.6504 32.8314 20.7179L30.0973 23.2424C29.3188 23.9612 28.8269 24.9375 28.7124 25.9909L27.0353 41.4249C26.7533 44.0193 28.7856 46.2844 31.3953 46.2844H40.3495C40.9633 46.2844 41.5702 46.4133 42.1311 46.6626L75.1758 61.353C75.4528 61.4761 75.7419 61.5702 76.0383 61.6337L93.6546 65.4097C94.8954 65.6756 96.1906 65.3911 97.2057 64.6296L98.577 63.6009C100.192 62.3896 102.424 62.4367 103.986 63.7151L105.357 64.8366C106.14 65.4779 107.122 65.8283 108.134 65.8283H118.407C119.383 65.8283 120.33 66.1535 121.1 66.7525Z" stroke="#D9D9D9" stroke-width="2"/>
</svg>
