<svg width="133" height="199" viewBox="0 0 133 199" fill="none" xmlns="http://www.w3.org/2000/svg">
<path d="M20.5448 148.298L35.6959 104.206C36.8733 100.779 33.614 97.4884 30.1762 98.6327L18.9411 102.372C18.464 102.531 18.0178 102.771 17.6222 103.082L13.8522 106.04C12.16 107.367 9.75377 107.268 8.17658 105.806L5.75319 103.558C4.45537 102.355 4.01043 100.488 4.62591 98.8288L7.69014 90.5669C8.29995 88.9227 7.36186 87.1106 5.6673 86.6594L4.74206 86.413C3.02596 85.956 2.39397 83.8505 3.57474 82.524C4.45591 81.5341 4.36063 80.0155 3.36264 79.1435L2.29561 78.2112C1.47234 77.4918 1 76.4518 1 75.3586V61.5098C1 60.1552 1.62748 58.8769 2.69918 58.0484L15.9944 47.7697C16.7607 47.1773 17.7019 46.8559 18.6705 46.8559H29.4994C31.9158 46.8559 33.8747 48.8147 33.8747 51.2311V56.2071C33.8747 58.0911 35.0806 59.7634 36.8681 60.3584L39.8553 61.3528C41.8381 62.0128 44.0109 61.1784 45.0423 59.3608L50.6427 49.4917C51.5424 47.9061 51.3647 45.9288 50.1967 44.5291L48.232 42.1748C47.4007 41.1786 46.1702 40.6028 44.8728 40.6028H37.3396C36.4429 40.6028 35.5678 40.3273 34.8329 39.8136L27.7192 34.8409C26.3727 33.8997 25.667 32.2836 25.8918 30.6563L27.1207 21.7593C27.3591 20.0326 25.8027 18.5976 24.1011 18.9752C23.353 19.1413 22.5701 18.9552 21.9767 18.4704L19.1941 16.1969C17.9509 15.1811 17.3638 13.566 17.6646 11.9889L18.7724 6.18116C19.0749 4.5955 20.2259 3.3052 21.7668 2.82433L26.9763 1.19864C27.3982 1.06697 27.8377 1 28.2797 1H36.8585C39.2453 1 41.1802 2.93486 41.1802 5.32164C41.1802 7.35992 42.6044 9.1211 44.5975 9.54761L45.5524 9.75193C47.3201 10.1302 48.6732 11.5567 48.9576 13.342L51.7752 31.0279C52.0025 32.4545 52.9193 33.6769 54.2251 34.2946L60.5191 37.2718C61.5059 37.7386 62.6315 37.8196 63.675 37.499L66.1963 36.7243C67.8093 36.2287 69.5635 36.7048 70.7045 37.9478L79.8626 47.9244C80.1636 48.2523 80.4128 48.6242 80.6016 49.0273L94.9687 79.7002C95.284 80.3734 95.4226 81.1159 95.3714 81.8575L94.6763 91.923C94.53 94.0403 96.2082 95.8383 98.3305 95.8383C100.011 95.8383 101.476 96.9816 101.884 98.6117L105.886 114.598L120.283 156.701C120.425 157.116 120.628 157.507 120.886 157.861L131.161 171.97C132.271 173.494 132.28 175.558 131.183 177.091L130.76 177.683C129.203 179.859 126.074 180.141 124.154 178.276L111.347 165.842C109.963 164.499 107.863 164.22 106.177 165.156L102.08 167.429C100.583 168.259 99.7083 169.885 99.8397 171.591L101.023 186.956C101.128 188.316 100.593 189.646 99.5761 190.555L92.5202 196.859C91.7182 197.576 90.6805 197.972 89.6051 197.972H81.8085C80.8413 197.972 79.9014 197.651 79.1356 197.061L73.1157 192.415C70.9123 190.715 70.8354 187.417 72.9572 185.616L86.6801 173.968C88.3983 172.509 88.7275 169.984 87.4408 168.134L78.998 155.993C77.6841 154.104 75.1312 153.555 73.1572 154.738L69.875 156.705C69.1955 157.112 68.4183 157.327 67.6262 157.327H48.0807C47.3202 157.327 46.5728 157.525 45.9123 157.902L37.8377 162.51C36.8014 163.101 35.482 162.741 34.8894 161.706C34.3199 160.71 33.0727 160.333 32.0468 160.845L26.6371 163.546C23.7281 164.999 20.3074 162.883 20.3074 159.632V149.72C20.3074 149.236 20.3876 148.756 20.5448 148.298Z" stroke="#D9D9D9" stroke-width="2"/>
</svg>
