<svg width="119" height="86" viewBox="0 0 119 86" fill="none" xmlns="http://www.w3.org/2000/svg">
<path d="M30.4674 43.0047H27.7238C26.9688 43.0047 26.227 43.203 25.5727 43.5797L11.3356 51.7762C9.5821 52.7858 7.36244 52.44 5.99908 50.9449L1.12564 45.6007C-0.252685 44.0892 -0.379081 41.8172 0.823087 40.1622L12.2686 24.4049C12.9587 23.4548 14.0064 22.8274 15.1697 22.6675L34.6082 19.9961C35.8722 19.8224 36.9942 19.0979 37.6726 18.0173L42.7998 9.85026C44.3456 7.38785 48.0531 7.80542 49.0125 10.55C49.4991 11.942 50.8125 12.8743 52.2871 12.8743H55.5447C57.9257 12.8743 59.8559 10.9441 59.8559 8.56312V6.84992C59.8559 4.99487 61.0425 3.34779 62.8022 2.76051L70.4079 0.222118C72.2534 -0.393841 74.2829 0.302704 75.3612 1.9222L77.958 5.82231C78.6259 6.82534 79.683 7.50308 80.8733 7.69125L111.817 12.5832C112.992 12.769 114.038 13.4318 114.707 14.4149L118.252 19.6204C119.519 21.4814 119.141 24.0042 117.384 25.4117L114.317 27.8679C113.882 28.2167 113.383 28.4776 112.848 28.6363L102.913 31.5836C101.904 31.8829 101.04 32.541 100.483 33.4339L95.8651 40.8309C95.0288 42.1707 94.992 43.8606 95.7693 45.2354L105.503 62.4527C106.873 64.8757 105.621 67.9424 102.948 68.7157L89.6242 72.5696C88.3862 72.9277 87.0529 72.7131 85.9898 71.9848L83.1159 70.016C81.3732 68.8222 79.0058 70.07 79.0058 72.1824C79.0058 74.468 76.2881 75.6625 74.6042 74.117L74.3339 73.8689C73.8197 73.397 73.1472 73.1351 72.4492 73.1351H50.8996C49.3844 73.1351 47.9804 73.9306 47.2016 75.2303L42.7779 82.6124C41.45 84.8282 38.4574 85.3351 36.4739 83.6801C35.4123 82.7944 33.9833 82.4867 32.6513 82.8572L22.199 85.7643C20.0334 86.3666 17.7685 85.2039 16.9956 83.0933L14.3417 75.8463C13.7409 74.2058 14.1896 72.3649 15.4779 71.1849L33.3794 54.7863C34.2709 53.9697 34.7785 52.8163 34.7785 51.6073V47.3159C34.7785 44.9349 32.8484 43.0047 30.4674 43.0047Z" fill="#FF7466" fill-opacity="0.5"/>
</svg>
