<svg width="143" height="173" viewBox="0 0 143 173" fill="none" xmlns="http://www.w3.org/2000/svg">
<path d="M70.9594 170.119L140.258 117.553C141.942 116.276 142.481 113.981 141.54 112.088L134.103 97.1091C133.491 95.8756 133.491 94.4266 134.103 93.193L135.177 91.0299C136.183 89.0039 135.483 86.5453 133.56 85.3537C131.893 84.3209 129.744 84.5203 128.295 85.842L116.721 96.4051C115.91 97.1454 114.851 97.5559 113.753 97.5559H84.449C83.4975 97.5559 82.5715 97.2476 81.8099 96.6773L66.1206 84.9289C65.0104 84.0975 64.3568 82.7916 64.3568 81.4046V70.0704C64.3568 68.6107 65.0803 67.2459 66.2884 66.4265L85.8276 53.175C87.0357 52.3556 87.7592 50.9908 87.7592 49.531V40.7274C87.7592 38.7757 86.4745 37.057 84.6027 36.5045L62.888 30.0951C61.176 29.5898 59.9385 28.1009 59.7548 26.3253L57.8979 8.37378C57.7548 6.98966 56.9657 5.75468 55.7699 5.04311L51.3118 2.39026C49.4821 1.30146 47.1632 2.61998 47.1632 4.74914V4.90156C47.1632 7.23073 44.3951 8.44947 42.6772 6.8767C42.1834 6.42471 41.5383 6.17401 40.869 6.17401H17.8372C16.4547 6.17401 15.1524 6.82342 14.3205 7.9277L7.00659 17.6366C5.88443 19.1262 5.82249 21.1612 6.85198 22.7162L24.69 49.6613C25.5879 51.0176 25.6648 52.7585 24.8901 54.1887L21.6763 60.1222C20.9016 61.5525 20.9786 63.2933 21.8765 64.6496L24.2494 68.2341C25.3655 69.92 25.19 72.1493 23.8238 73.6397L21.4393 76.2411C20.7771 76.9634 20.3749 77.886 20.2963 78.8628L19.3721 90.3409C19.1642 92.9232 16.7827 94.7687 14.2302 94.3256L9.26055 93.4627C6.94909 93.0614 4.72893 94.5429 4.21245 96.8314L3.42726 100.311C3.04855 101.989 4.07732 103.662 5.7455 104.082C7.94732 104.637 8.86945 107.258 7.49952 109.069L4.14177 113.507C3.42795 114.45 3.77744 115.813 4.8573 116.296C5.96113 116.79 6.29614 118.197 5.53355 119.135L3.66694 121.433C3.07146 122.166 2.74641 123.081 2.74641 124.025V126.755C2.74641 127.467 2.49806 128.156 2.04416 128.705C1.0761 129.875 1.11275 131.578 2.13024 132.705L3.57594 134.306C4.55108 135.386 4.92949 136.879 4.58694 138.293L1.12405 152.59C0.668977 154.469 1.49279 156.425 3.155 157.413L18.1171 166.298C18.6882 166.638 19.3285 166.843 19.9903 166.9L67.9234 170.998C69.0093 171.091 70.0911 170.778 70.9594 170.119Z" stroke="#D9D9D9" stroke-width="2"/>
</svg>
