<svg width="181" height="162" viewBox="0 0 181 162" fill="none" xmlns="http://www.w3.org/2000/svg">
<path d="M6.33052 77.1317C4.61957 76.6174 3.37211 75.1435 3.14762 73.3711L1.03607 56.6999C0.771283 54.6094 1.98621 52.6133 3.96474 51.8881L16.9936 47.113C19.6464 46.1406 20.7669 42.9999 19.3285 40.5681L8.41098 22.1101C7.51357 20.5929 7.5801 18.6924 8.58142 17.2416L13.7488 9.75481C14.3992 8.81253 15.3829 8.15217 16.5013 7.90712L24.9313 6.06003C25.6368 5.90545 26.295 5.58406 26.8507 5.12279L30.562 2.04226C32.5872 0.361265 35.6147 0.759342 37.1366 2.90673L37.677 3.66926C38.6207 5.00088 38.7732 6.73783 38.076 8.21353L35.2507 14.1934C34.6602 15.4432 34.6741 16.8945 35.2884 18.1328L38.2328 24.068C38.8466 25.3054 39.9925 26.1941 41.3436 26.4808L46.7783 27.634C47.8815 27.8681 48.8573 28.5061 49.5142 29.4228L53.4962 34.9799C54.345 36.1645 55.7129 36.8671 57.1702 36.8671H62.3091C63.1831 36.8671 64.0383 37.1205 64.7712 37.5965L128.315 78.8706C129.177 79.4302 129.822 80.2665 130.144 81.2418L134.425 94.1843C134.808 95.3422 134.706 96.6057 134.144 97.6879L131.899 102.008C130.684 104.346 127.736 105.153 125.499 103.761L121.53 101.29C118.225 99.2328 114.039 102.037 114.683 105.876L118.059 125.979C118.277 127.277 117.918 128.605 117.077 129.617L92.5785 159.088C90.4773 161.616 86.4662 161.127 85.0342 158.168L79.1921 146.097C78.6334 144.943 78.5914 143.605 79.0763 142.418L80.157 139.773C81.0488 137.59 80.1127 135.089 78.0069 134.027L77.6642 133.855C75.9942 133.013 73.9784 133.287 72.5933 134.543L61.5183 144.589C60.6867 145.344 59.6042 145.762 58.4815 145.762H27.426C26.501 145.762 25.5982 145.478 24.8396 144.948L8.87236 133.807C7.66085 132.961 6.93892 131.577 6.93892 130.1V118.54C6.93892 117.071 7.65282 115.694 8.85314 114.847L29.4684 100.302C30.6687 99.4554 31.3826 98.0781 31.3826 96.6091V88.0234C31.3826 86.0283 30.0745 84.2692 28.1638 83.6949L6.33052 77.1317Z" stroke="#D9D9D9" stroke-width="2"/>
<path d="M175.494 69.2598C174.132 67.6116 171.8 67.144 169.907 68.1395L164.255 71.1118C162.814 71.8695 161.912 73.3635 161.912 74.9916C161.912 76.6848 160.937 78.2267 159.407 78.9523L157.152 80.0217C155.418 80.8442 155.017 83.1336 156.369 84.496C157.314 85.4489 157.445 86.9409 156.679 88.0434L151.927 94.8864C151.424 95.6099 150.721 96.1708 149.904 96.5002L149.03 96.8525C147.361 97.5255 146.268 99.145 146.268 100.945V102.462C146.268 104.061 147.564 105.357 149.163 105.357C150.363 105.357 151.439 106.098 151.867 107.22L152.619 109.189C153.222 110.77 154.657 111.881 156.339 112.069L175.6 114.227C178.03 114.227 180 112.257 180 109.827V101.77C180 100.895 179.746 100.04 179.27 99.3065L172.341 88.6469C171.471 87.3094 171.956 85.5133 173.381 84.7954C174.632 84.1646 175.186 82.6756 174.651 81.3803L173.312 78.1413C173.209 77.8923 173.156 77.6255 173.156 77.356C173.156 76.2208 174.076 75.3005 175.211 75.3005H175.87C177.071 75.3005 178.045 74.3271 178.045 73.1264C178.045 72.6207 177.868 72.1308 177.546 71.7411L175.494 69.2598Z" stroke="#D9D9D9" stroke-width="2"/>
</svg>
