<svg width="94" height="215" viewBox="0 0 94 215" fill="none" xmlns="http://www.w3.org/2000/svg">
<path d="M87.3142 147.581V140.123C87.3142 138.582 86.46 137.167 85.096 136.45L72.7086 129.935C70.9786 129.025 70.118 127.031 70.6426 125.148L74.4009 111.656C74.7746 110.315 74.3277 108.879 73.2588 107.987L71.8203 106.786C70.7692 105.909 70.8301 104.275 71.9436 103.478C72.4927 103.085 72.8184 102.452 72.8184 101.776V99.3929C72.8184 98.4962 73.1089 97.6236 73.6463 96.9057L75.4846 94.4502C76.1439 93.5696 75.8147 92.3047 74.8097 91.8573C73.7955 91.4057 73.4717 90.1238 74.1497 89.2447L77.417 85.0088C78.7613 83.266 77.8562 80.7167 75.7139 80.2117C74.1065 79.8328 73.0991 78.2359 73.4493 76.622L74.1366 73.4545C74.6219 71.2182 76.8259 69.7967 79.0633 70.277L82.8112 71.0816C85.2187 71.5984 87.5441 69.9174 87.8083 67.4693L88.9244 57.1267C89.0198 56.2431 89.3963 55.4134 89.9985 54.7598L91.7997 52.8051C93.2435 51.2381 93.2661 48.8324 91.8519 47.2386L89.48 44.5654C88.2091 43.133 88.0832 41.0169 89.1755 39.444L92.6858 34.3889C93.6805 32.9564 93.6735 31.0548 92.6682 29.6297L73.0077 1.75825C71.8741 0.151128 69.768 -0.43956 67.9639 0.343608L58.7866 4.32762C58.1927 4.58544 57.6674 4.97863 57.2526 5.47577L35.4353 31.6255C34.181 33.1289 34.1481 35.3046 35.3565 36.8452L35.7253 37.3155C37.0716 39.032 36.859 41.4979 35.2388 42.9588L1.37115 73.4944C-0.212048 74.9219 -0.456311 77.3166 0.806087 79.0343L27.2487 115.014C27.7467 115.691 28.4387 116.201 29.2331 116.477L49.5344 123.517C50.3912 123.814 51.1271 124.384 51.6296 125.139L53.3806 127.77C54.4255 129.34 54.0517 131.454 52.5317 132.571C50.6113 133.982 50.6113 136.851 52.5317 138.261L54.3851 139.623C54.948 140.037 55.3782 140.605 55.6231 141.259L55.8844 141.958C56.2883 143.037 55.9332 144.252 55.0122 144.944C53.9117 145.771 53.6475 147.313 54.4102 148.459L54.998 149.343C55.9243 150.735 55.8083 152.574 54.7144 153.838L53.034 155.78C51.8573 157.141 49.773 157.215 48.5023 155.942C47.3535 154.791 45.5101 154.726 44.2822 155.792L33.705 164.975C33.4259 165.217 33.1157 165.421 32.7827 165.581L24.6221 169.505C23.2014 170.189 21.5058 170 20.2624 169.031C19.0858 168.114 17.498 167.892 16.1192 168.46L13.4494 169.562C11.8957 170.203 10.8819 171.717 10.8819 173.398V177.041C10.8819 178.011 11.2214 178.95 11.8415 179.695L13.5233 181.717C14.486 182.874 16.2101 183.019 17.3522 182.038C17.9816 181.498 18.8248 181.277 19.6382 181.44L36.8831 184.895C37.6873 185.057 38.4256 185.452 39.005 186.033L45.4353 192.475C47.164 194.206 47.0267 197.05 45.1391 198.608L43.1357 200.26C41.941 201.246 41.3995 202.838 41.7235 204.353C42.1664 206.423 44.1044 207.862 46.211 207.647L62.0003 206.033C63.2139 205.909 64.2114 205.021 64.4756 203.83C64.7366 202.654 64.2238 201.441 63.1978 200.808L62.3296 200.273C60.8265 199.346 60.7277 197.197 62.1394 196.137C62.5157 195.854 62.8048 195.471 62.9735 195.031L64.2708 191.652C64.6568 190.647 65.6226 189.983 66.6996 189.983C68.2981 189.983 69.5185 191.411 69.2696 192.99L67.5804 203.708C67.299 205.493 68.2053 207.255 69.8212 208.064L82.0442 214.187C82.6211 214.476 83.2575 214.626 83.9028 214.626H87.6859C88.5851 214.626 89.4599 214.334 90.1788 213.794L92.3428 212.168C93.5728 211.244 94.1906 209.715 93.948 208.196L92.8561 201.359C92.6827 200.274 92.086 199.302 91.1968 198.656L76.9811 188.331C75.7666 187.449 75.1231 185.98 75.2982 184.489L78.3388 158.598C78.461 157.557 78.9722 156.601 79.7699 155.922L85.8547 150.741C86.7807 149.952 87.3142 148.797 87.3142 147.581Z" fill="#7175DA" fill-opacity="0.5"/>
</svg>
