<svg width="40" height="40" viewBox="0 0 40 40" fill="none" xmlns="http://www.w3.org/2000/svg">
<rect width="40" height="40" rx="10" fill="white"/>
<path fill-rule="evenodd" clip-rule="evenodd" d="M22.2117 22.0393C24.6117 22.0393 28.8 19.7733 28.8 15.1941C28.8 10.615 24.9411 8.16016 21.9764 8.16016L18.2117 8.16017C14.3392 8.16017 11.2 11.3094 11.2 15.1941C11.2 18.5893 16.1604 28.887 17.4107 31.4285C17.5836 31.7801 17.9406 32.0002 18.3315 32.0002H19.5764C19.8883 32.0002 20.1411 31.7465 20.1411 31.4337V28.2707C20.1411 27.9579 20.394 27.7042 20.7058 27.7042H23.6235C23.9354 27.7042 24.1882 27.4506 24.1882 27.1377V25.7215C24.1882 25.4086 23.9354 25.155 23.6235 25.155H20.7058C20.394 25.155 20.1411 24.9014 20.1411 24.5885V22.6058C20.1411 22.2929 20.3938 22.0393 20.7057 22.0393H22.2117ZM17.6672 12.7616C16.5158 13.0783 15.7176 14.1281 15.7176 15.3258C15.7176 16.5096 16.4977 17.5508 17.6312 17.8798L20.6214 18.7479C22.8773 19.4028 25.1294 17.7047 25.1294 15.3487C25.1294 13.0135 22.9143 11.3186 20.6693 11.936L17.6672 12.7616Z" fill="url(#paint0_linear_529_1142)"/>
<defs>
<linearGradient id="paint0_linear_529_1142" x1="11.5" y1="11" x2="24" y2="32" gradientUnits="userSpaceOnUse">
<stop stop-color="#F9432A"/>
<stop offset="0.911458" stop-color="#FEAF43"/>
</linearGradient>
</defs>
</svg>
