<svg width="36" height="50" viewBox="0 0 36 50" fill="none" xmlns="http://www.w3.org/2000/svg">
<path fill-rule="evenodd" clip-rule="evenodd" d="M22.5241 29.1089C27.4332 29.1089 36 24.3564 36 14.7525C36 5.14852 28.107 0 22.0428 0L14.3422 2.06432e-05C6.42124 2.06432e-05 0 6.60493 0 14.7525C0 21.8733 10.1464 43.4707 12.7037 48.801C13.0576 49.5386 13.7878 50 14.5873 50H17.1337C17.7716 50 18.2888 49.4681 18.2888 48.8119V42.1782C18.2888 41.522 18.8059 40.9901 19.4438 40.9901H24.3529C24.9909 40.9901 25.508 40.4582 25.508 39.802V36.8317C25.508 36.1755 24.9909 35.6436 24.3529 35.6436H19.4438C18.8059 35.6436 18.2888 35.1116 18.2888 34.4554V30.297C18.2888 29.6409 18.8056 29.1089 19.4436 29.1089H22.5241ZM11.7496 7.10697C8.66076 8.06013 6.54545 10.9845 6.54545 14.3016C6.54545 17.5764 8.60816 20.4739 11.6434 21.4625L17.6225 23.4101C23.5769 25.3495 29.6471 20.7774 29.6471 14.3529C29.6471 7.98901 23.6829 3.42458 17.7569 5.25324L11.7496 7.10697Z" fill="url(#paint0_linear_512_168)"/>
<defs>
<linearGradient id="paint0_linear_512_168" x1="-5.96791" y1="1.48359e-07" x2="37.3591" y2="48.6917" gradientUnits="userSpaceOnUse">
<stop offset="0.0130172" stop-color="#FF3737"/>
<stop offset="0.171516" stop-color="#FF543B"/>
<stop offset="0.769389" stop-color="#FFC348"/>
<stop offset="1" stop-color="#FFED4D"/>
</linearGradient>
</defs>
</svg>
